<?xml version="1.0" encoding="utf-8"?>
<!-- Generator: Adobe Illustrator 22.0.1, SVG Export Plug-In . SVG Version: 6.00 Build 0)  -->
<svg version="1.1" id="图层_1" xmlns="http://www.w3.org/2000/svg" xmlns:xlink="http://www.w3.org/1999/xlink" x="0px" y="0px"
	 viewBox="0 0 280 330" style="enable-background:new 0 0 280 330;" xml:space="preserve">
<style type="text/css">
	.st0{display:none;fill:url(#SVGID_1_);}
	.st1{display:none;fill:url(#SVGID_2_);}
	.st2{display:none;fill:url(#SVGID_3_);}
	.st3{display:none;fill:url(#SVGID_4_);}
	.st4{display:none;fill:url(#SVGID_5_);}
	.st5{display:none;fill:url(#SVGID_6_);}
	.st6{fill:#FFD3B6;}
	.st7{fill:#C17D40;}
	.st8{fill:#F8C6A4;}
	.st9{fill:#467EF0;stroke:#2A63CE;stroke-width:7.125;stroke-miterlimit:10;}
	.st10{fill:#3E76E6;}
	.st11{fill:#FFFFFF;stroke:#E6E6E6;stroke-width:1.425;stroke-miterlimit:10;}
	.st12{fill:#F3BD98;}
	.st13{fill:none;stroke:#C17D40;stroke-width:7.125;stroke-miterlimit:10;}
	.st14{fill:none;stroke:#C17D40;stroke-width:5.7;stroke-linecap:round;stroke-miterlimit:10;}
	.st15{fill:url(#SVGID_7_);}
	.st16{fill:url(#SVGID_8_);}
	.st17{fill:url(#SVGID_9_);}
	.st18{fill:url(#SVGID_10_);}
	.st19{display:none;fill:url(#SVGID_11_);}
	.st20{display:none;fill:url(#SVGID_12_);}
	.st21{display:none;fill:url(#SVGID_13_);}
	.st22{fill:#6ECE7E;}
	.st23{fill:#0DB2FF;}
	.st24{fill:#FF9227;}
	.st25{fill:#FD4B39;}
	.st26{fill:#FFCC00;}
	.st27{fill:url(#SVGID_14_);}
	.st28{fill:url(#SVGID_15_);}
	.st29{fill:url(#SVGID_16_);}
</style>
<linearGradient id="SVGID_1_" gradientUnits="userSpaceOnUse" x1="190.6072" y1="307.2866" x2="238.7411" y2="307.2866" gradientTransform="matrix(1 0 0 -1 0 330)">
	<stop  offset="0" style="stop-color:#FD6151"/>
	<stop  offset="1" style="stop-color:#FD4B39"/>
</linearGradient>
<path class="st0" d="M216.1,2.7c-3.3,1.9-5.8,5-7,8.6c-3.7-0.8-7.6-0.2-10.9,1.8c-7.3,4.2-9.8,13.5-5.6,20.6
	c2.3,3.9,6.1,6.4,11.1,7.3c5.7,1,21.2,3.7,21.2,3.7c1.1,0.2,2.3,0,3.3-0.6s1.8-1.5,2.2-2.6c0,0,5.3-14.8,7.3-20.2
	c1.7-4.8,1.4-9.4-0.8-13.3C232.6,1,223.3-1.5,216.1,2.7z"/>
<linearGradient id="SVGID_2_" gradientUnits="userSpaceOnUse" x1="261.7364" y1="268.2155" x2="311.3627" y2="268.2155" gradientTransform="matrix(1 0 0 -1 0 330)">
	<stop  offset="0" style="stop-color:#FD6151"/>
	<stop  offset="1" style="stop-color:#FD4B39"/>
</linearGradient>
<path class="st1" d="M301.1,47.5c-3.6-1.3-7.6-1.1-11,0.3c-1.8-3.3-4.8-5.9-8.4-7.1c-7.9-2.7-16.5,1.4-19.2,9.1
	c-1.5,4.2-0.9,8.8,1.7,13.1c2.9,5,10.9,18.4,10.9,18.4c0.6,1,1.5,1.7,2.6,2.1s2.3,0.4,3.3,0c0,0,14.6-5.6,20-7.6
	c4.7-1.8,8-5,9.5-9.2C313.2,58.8,309,50.2,301.1,47.5z"/>
<linearGradient id="SVGID_3_" gradientUnits="userSpaceOnUse" x1="208.736" y1="205.3" x2="280.5359" y2="205.3" gradientTransform="matrix(1 0 0 -1 0 330)">
	<stop  offset="0" style="stop-color:#FD6151"/>
	<stop  offset="1" style="stop-color:#FD4B39"/>
</linearGradient>
<path class="st2" d="M259.2,94.9c-5.4,0-10.6,2.1-14.5,5.6c-3.9-3.6-9.1-5.6-14.5-5.6c-11.8,0-21.4,9.6-21.4,21.4
	c0,6.4,2.9,12.2,8.4,16.9c6.2,5.3,23.1,19.7,23.1,19.7c1.2,1,2.8,1.6,4.4,1.6c1.6,0,3.2-0.6,4.4-1.6c0,0,16.9-14.4,23.1-19.7
	c5.5-4.7,8.4-10.5,8.4-16.9C280.5,104.5,271,94.9,259.2,94.9z"/>
<g>
	<g>
		<path class="st6" d="M182.1,326.4c-19,0-39.3-5.5-62.1-16.8c-0.2-0.1-0.4-0.2-0.5-0.2c-1.8-0.5-5.2-2.1-9.3-3.9
			c-10.8-4.9-27.2-12.3-43.3-15.4c-1.8-1-6.4-10.4-8.1-43.3c-1-19.9-0.5-39.4,0.3-45.6c4.9-0.5,15.9-1.7,24.5-7.2
			c6.1-3.9,11.6-8.7,16.5-12.8c3.2-2.8,6.3-5.4,9.1-7.4c8.9-6.3,13.8-8.9,18.5-11.5c3.2-1.7,6.3-3.3,10.3-6
			c12.7-8.6,28.5-32.8,33.1-58.4c0-0.1,0.1-0.3,0.1-0.3c1.5,0,5.3,1.6,10.9,6c4.8,3.8,15.4,15,9.3,36.5c0,0.1,0,0.1-0.1,0.2
			c-2.4,11.3-12.5,28.4-16.8,35.2c-1.2,1.9-1.1,3.5,0.1,4.8c0.7,0.7,1.6,1.1,2.6,1.1h0.8c19.5,0,47.8,2.1,64.1,6c0.1,0,0.1,0,0.2,0
			c13.1,2.6,22.5,11.3,23.4,21.9c-0.5,6.8-2.6,13.4-6,19.3c-1.9,3.2-1.7,7.2,0.5,10.1c1,1.3,2.2,4,2.2,7.2
			c0.2,12.2-8.2,19.4-10.8,21.3c-2,1.5-3,4-2.5,6.5c1.3,6.4,1.2,10-0.2,13.2c-2.9,6.6-6.4,8.7-11,11c-2.4,1.2-4,3.4-4.4,5.9
			c-1.8,11.4-13.5,18.9-33,21.1l-1.8,0.2C194.2,325.7,188.6,326.4,182.1,326.4z"/>
		<path class="st7" d="M173.7,102.2c1.5,0.8,3.6,2.2,6,4.1c4.3,3.4,13.6,13.3,8.1,32.8c0,0.1-0.1,0.3-0.1,0.4
			c-1.6,7.4-7.7,20.2-16.3,34c-2.9,4.7-0.4,8.1,0.5,9.1c1.3,1.5,3.3,2.3,5.2,2.3l0,0h0.8c19.3,0,47.2,2,63.3,5.9
			c0.1,0,0.2,0,0.3,0.1c11.4,2.2,19.6,9.6,20.5,18.4c-0.5,6.1-2.5,12.2-5.5,17.5c-2.6,4.5-2.3,10,0.7,14c0.7,0.9,1.5,2.9,1.5,5.1
			c0.2,10.5-7.1,16.7-9.4,18.4c-3.1,2.3-4.6,6.2-3.9,10.1c1.1,5.6,1.1,8.6,0.1,11c-2.4,5.5-5.2,7.1-9.3,9.2
			c-3.4,1.7-5.8,4.9-6.4,8.6c-0.7,4.4-3,7.9-7.1,10.9c-5.2,3.7-12.8,6.2-22.7,7.3c-0.6,0.1-1.2,0.1-1.8,0.2
			c-4.6,0.5-9.8,1.1-16.1,1.1c-18.4,0-38.2-5.4-60.5-16.4c-0.3-0.2-0.7-0.3-1.1-0.4c-1.6-0.5-5.1-2.1-8.9-3.8
			c-10.7-4.9-26.8-12.1-42.9-15.4c-1.9-3-5.3-14.8-6.5-42.6c-0.7-16.8-0.4-32.4,0.1-39.8c5.9-0.7,15.3-2.4,23.1-7.4
			c6.4-4.1,12-8.9,16.9-13.1c3.2-2.7,6.2-5.3,8.8-7.2c8.7-6.2,13.5-8.8,18.1-11.2c3.2-1.7,6.5-3.4,10.6-6.2c0,0,0,0,0.1,0
			C155.8,148.4,169.1,122.6,173.7,102.2 M171,93.9c-1.8,0-3.1,0.9-3.6,3.3c-4.4,24.5-19.7,48-31.6,56.1c-9.6,6.3-13.7,6.7-28.9,17.5
			c-7.2,5.1-15.4,13.8-25.4,20.2c-10.3,6.6-24.7,6.5-25.4,7c-2.4,1.7-3.7,90.9,9.6,95.5c22.3,4.1,45.8,17.2,52.6,19.3
			c28.4,14.1,48.9,17.2,63.7,17.2c7.7,0,13.8-0.8,18.7-1.4c23.3-2.6,34.2-12.2,36.1-24.1c0.2-1.4,1.2-2.7,2.5-3.3
			c5.3-2.6,9.4-5.3,12.7-12.7c1.9-4.3,1.7-9,0.4-15.3c-0.2-1.1,0.2-2.3,1.1-2.9c5.6-4.1,12.5-12.4,12.3-24.2
			c-0.1-3.7-1.3-7.1-2.9-9.3c-1.3-1.8-1.4-4.2-0.2-6.2c3.9-6.8,6-14.2,6.5-21.1c-0.9-12.8-12-22.6-26.3-25.4
			c-16.5-4-44.9-6.1-65-6.1c-0.3,0-0.5,0-0.8,0c0,0,14.5-22.4,17.5-36.8c5.3-18.8-1-32.8-10.5-40.3C181.7,98.8,175.2,93.9,171,93.9
			L171,93.9z"/>
	</g>
	<path class="st8" d="M66.7,289.1c0,0,26.4,4.7,29.5,5.7c11.7,3.7,24.2,10,24.2,10s-22.1-13.3-27-21.4c-7.5-12.2-23.2-38.5-10-67.9
		c4.8-10.7,34.1-43.1,34.1-43.1s-20.6,13.8-29.9,22.8c-3.5,3.4-9.3,4.9-11.4,5.7c-5.3,2.1-10,2.8-10,2.8L66.7,289.1z"/>
	<path class="st9" d="M25.9,182.7h34.9c3.4,0,6.1,2.7,6.1,6.1V296c0,3.4-2.7,6.1-6.1,6.1H25.9c-3.4,0-6.1-2.7-6.1-6.1V188.8
		C19.8,185.4,22.5,182.7,25.9,182.7z"/>
	<path class="st10" d="M27.2,222L61,244.2c0.3,0.2,0.5,0.5,0.5,0.9l-0.3,48.6c0,1.4-1.2,2.6-2.6,2.6H28.1c-1.4,0-2.6-1.2-2.6-2.6
		v-70.8C25.5,222,26.4,221.5,27.2,222z"/>
	<path class="st11" d="M43,276.3c3.9,0,7.1,3.2,7.1,7.1s-3.2,7.1-7.1,7.1s-7.1-3.2-7.1-7.1S39.1,276.3,43,276.3z"/>
	<path class="st12" d="M98.2,254.9c0,0,12.6,6.4,14,17.5c1.2,9.6,6.1,15.8,6.1,15.8s-6-7.6-9.6-18.4
		C106.2,262.1,98.2,254.9,98.2,254.9z"/>
	<path class="st12" d="M139.4,208.5c0,0-3.2,5.5-5.3,10.5c-2.2,5.3-4.1,11.9-7,15.8c-5.3,7.1-14.7,12.6-30.7,11.4
		c12.2,0.5,20.7-4.7,27.2-12.3c2.3-2.7,7.5-11.5,10.5-16.6C136.6,213.1,139.4,208.5,139.4,208.5z"/>
	<path class="st13" d="M199.3,325.3c-3.6-0.9-7.8-2.5-12.5-5.5c-7.6-4.8-13.4-8-15.1-18.7c-1-6,1.7-9.3,4.2-11"/>
	<path class="st13" d="M233.2,301c-8.7-0.1-24.2-0.3-30.5-1.1c-5.5-0.7-28.9,0.4-33.3-24.1c-0.7-7.8,2.2-14.9,4-17.5
		c0.3-0.5,1-0.6,1.5-0.3c3.4,2.3,16.3,10.5,25.1,12c4.3,1.2,15.9,1.4,26.9,1.2c11.9-0.2,23-0.7,23-0.7"/>
	<path class="st14" d="M177.3,232.3c0,0-5.5-6.3-4.5-16.3c0.9-10,10.4-13.3,13.8-12.6c3.4,0.6,21,3.6,27.4,3.3
		c3.3-0.1,8.9-1.1,12.8-2.2"/>
	<path class="st13" d="M258.6,233.8c0,0-17.8,9.8-49,8.7c-15.9-0.5-23.1-5.3-26.9-7.3c-4.2-2.3-18.1-0.6-9.9,18.8
		c0.5,1.1,2.2,4.6,3.1,5.5"/>
	<path class="st12" d="M180.8,156.7c0,0-9,16.4-10.4,18.8c-1,1.6-0.5,8.9,5.7,9.5c2.4,0.2,13.5,0,26.2,0.8c16.8,1,36.6,3.3,44.5,6.8
		c-31.1-4.9-88.5-1.7-89.1-7.4C156.9,175.7,180.8,156.7,180.8,156.7z"/>
	<path class="st12" d="M177.8,255.6c0,0-5.8-9.2-3.5-15.1c1.1-2.8,4.5-3.2,7.3-1.8c8.7,4.2,21.1,8.1,43.4,6.8
		c21.8-1.3,28.5-6.2,31-6.7c1.2,1.1,3.7,6.6,2.5,11c-0.7,2.7-2,6.2-4.6,9.6c0.5-5.4,1.5-9.2-0.9-11.8s-23.5,4.1-37.8,3.7
		s-33-8.6-35.1-8.2C174.5,244.2,177.8,255.6,177.8,255.6z"/>
	<path class="st12" d="M175.3,283.1c0,0-4.6-9.7-1.8-16.6c1.6-3.8,1.8-4.4,1.8-4.4s14.5,12.4,34.7,12.6s35.2-0.2,35.2-0.2
		s1.5,4.7,0.9,8.7s-4.4,9-6.9,10.1c3.4-4.9,2-9.5,1.9-11.8s-28.6-0.2-32.8-1c-4.2-0.7-25.5-3.8-30-8.8
		C173.8,266.5,175.3,283.1,175.3,283.1z"/>
	<path class="st12" d="M217.8,316.8c0,0,9.5-3.2,11.8-12.2c-4.1,0-18.5,0.2-32.8-1.7c-12.5-1.9-17.7-5-20.9-7.8
		c-2.1,1.2-0.3,9,0.9,10.8c1.1,2,4.4,6,5.3,6.6s-4-5.8-3.4-9.3c0.4-2.4,14.1,4.7,22.2,5c8.1,0.4,20.3-0.9,22.8-0.1
		C226.5,309.1,217.8,316.8,217.8,316.8z"/>
	<g>
		
			<linearGradient id="SVGID_4_" gradientUnits="userSpaceOnUse" x1="203.6811" y1="200.1" x2="271.6053" y2="200.1" gradientTransform="matrix(1 0 0 -1 0 330)">
			<stop  offset="0" style="stop-color:#FFD83E"/>
			<stop  offset="1" style="stop-color:#FFCC00"/>
		</linearGradient>
		<path style="fill:url(#SVGID_4_);" d="M270.2,128.1c-20.6-5.9-25-10.3-30.9-30.9c-0.2-0.8-0.9-1.3-1.8-1.3c-0.8,0-1.5,0.5-1.8,1.3
			c-5.9,20.7-10.3,25-30.9,30.9c-0.8,0.2-1.3,0.9-1.3,1.8c0,0.8,0.5,1.5,1.3,1.8c20.6,5.9,25,10.3,30.9,30.9
			c0.2,0.8,0.9,1.3,1.8,1.3c0.8,0,1.5-0.5,1.8-1.3c5.9-20.7,10.3-25,30.9-30.9c0.8-0.2,1.3-0.9,1.3-1.8
			C271.6,129,271,128.3,270.2,128.1z"/>
		
			<linearGradient id="SVGID_5_" gradientUnits="userSpaceOnUse" x1="109.7178" y1="268" x2="169.7178" y2="268" gradientTransform="matrix(1 0 0 -1 0 330)">
			<stop  offset="0" style="stop-color:#FFD83E"/>
			<stop  offset="1" style="stop-color:#FFCC00"/>
		</linearGradient>
		<path style="fill:url(#SVGID_5_);" d="M169.6,62c0-0.8-0.5-1.5-1.3-1.8c-18-5.2-21.7-8.9-26.9-26.9c-0.2-0.8-0.9-1.3-1.8-1.3
			c-0.8,0-1.5,0.5-1.8,1.3c-5.2,18-8.9,21.8-26.9,26.9c-0.8,0.2-1.3,0.9-1.3,1.8c0,0.8,0.5,1.5,1.3,1.8c18,5.2,21.7,8.9,26.9,26.9
			c0.2,0.8,0.9,1.3,1.8,1.3c0.8,0,1.5-0.5,1.8-1.3c5.2-18,8.9-21.8,26.9-26.9C169.1,63.5,169.6,62.8,169.6,62z"/>
		
			<linearGradient id="SVGID_6_" gradientUnits="userSpaceOnUse" x1="194.3446" y1="308.4" x2="230.1446" y2="308.4" gradientTransform="matrix(1 0 0 -1 0 330)">
			<stop  offset="0" style="stop-color:#FFD83E"/>
			<stop  offset="1" style="stop-color:#FFCC00"/>
		</linearGradient>
		<path style="fill:url(#SVGID_6_);" d="M228.8,19.8c-10-2.9-12-4.8-14.8-14.9c-0.2-0.8-0.9-1.3-1.8-1.3c-0.8,0-1.5,0.5-1.8,1.3
			c-2.9,10-4.8,12-14.8,14.9c-0.8,0.2-1.3,0.9-1.3,1.8s0.5,1.5,1.3,1.8c10,2.9,12,4.8,14.8,14.9c0.2,0.8,0.9,1.3,1.8,1.3
			c0.8,0,1.5-0.5,1.8-1.3c2.9-10,4.8-12,14.8-14.9c0.8-0.2,1.3-0.9,1.3-1.8S229.6,20,228.8,19.8z"/>
		
			<linearGradient id="SVGID_7_" gradientUnits="userSpaceOnUse" x1="70.0235" y1="189.2" x2="112.2905" y2="189.2" gradientTransform="matrix(1 0 0 -1 0 330)">
			<stop  offset="0" style="stop-color:#FFD83E"/>
			<stop  offset="1" style="stop-color:#FFCC00"/>
		</linearGradient>
		<path class="st15" d="M110.9,139c-12.1-3.5-14.6-6-18.1-18.1c-0.2-0.8-0.9-1.3-1.8-1.3c-0.8,0-1.5,0.5-1.8,1.3
			c-3.5,12.1-6,14.6-18.1,18.1c-0.8,0.2-1.3,0.9-1.3,1.8c0,0.8,0.5,1.5,1.3,1.8c12.1,3.5,14.6,6,18.1,18.1c0.2,0.8,0.9,1.3,1.8,1.3
			c0.8,0,1.5-0.5,1.8-1.3c3.5-12.1,6-14.6,18.1-18.1c0.8-0.2,1.3-0.9,1.3-1.8C112.2,139.9,111.7,139.2,110.9,139z"/>
	</g>
</g>
</svg>
